<svg width="40" height="40" viewBox="0 0 40 40" fill="none" xmlns="http://www.w3.org/2000/svg">
<g clip-path="url(#clip0_48636_396)">
<path d="M20 3.33317C10.7953 3.33317 3.33335 10.7951 3.33335 19.9998C3.33335 29.2046 10.7953 36.6665 20 36.6665C29.2048 36.6665 36.6667 29.2046 36.6667 19.9998C36.6667 10.7951 29.2048 3.33317 20 3.33317Z" stroke="#37C77F" stroke-width="3" stroke-linecap="round" stroke-linejoin="round"/>
<path d="M20.3 32.69C19.86 32.69 19.5 32.54 19.22 32.24C18.94 31.96 18.8 31.61 18.8 31.19V28.52L19.49 29.18C18.11 29.14 16.88 28.96 15.8 28.64C14.74 28.32 13.84 27.95 13.1 27.53C12.74 27.31 12.49 27.04 12.35 26.72C12.21 26.38 12.16 26.04 12.2 25.7C12.24 25.36 12.36 25.07 12.56 24.83C12.78 24.57 13.05 24.41 13.37 24.35C13.69 24.27 14.06 24.35 14.48 24.59C15.04 24.91 15.77 25.22 16.67 25.52C17.59 25.8 18.69 25.94 19.97 25.94C20.97 25.94 21.78 25.82 22.4 25.58C23.02 25.34 23.47 25.01 23.75 24.59C24.05 24.17 24.2 23.69 24.2 23.15C24.2 22.71 24.1 22.33 23.9 22.01C23.7 21.67 23.37 21.38 22.91 21.14C22.45 20.88 21.83 20.67 21.05 20.51L17.87 19.82C16.05 19.42 14.69 18.75 13.79 17.81C12.89 16.87 12.44 15.64 12.44 14.12C12.44 12.94 12.73 11.89 13.31 10.97C13.89 10.03 14.7 9.28 15.74 8.72C16.78 8.16 18 7.83 19.4 7.73L18.8 8.18V5.66C18.8 5.24 18.94 4.89 19.22 4.61C19.5 4.31 19.86 4.16 20.3 4.16C20.72 4.16 21.07 4.31 21.35 4.61C21.65 4.89 21.8 5.24 21.8 5.66V8.18L21.17 7.7C22.03 7.72 22.97 7.89 23.99 8.21C25.03 8.53 25.92 8.98 26.66 9.56C26.96 9.8 27.16 10.08 27.26 10.4C27.36 10.7 27.37 11 27.29 11.3C27.21 11.58 27.06 11.82 26.84 12.02C26.62 12.22 26.34 12.34 26 12.38C25.68 12.4 25.31 12.29 24.89 12.05C24.31 11.71 23.66 11.44 22.94 11.24C22.22 11.02 21.36 10.91 20.36 10.91C19.08 10.91 18.07 11.2 17.33 11.78C16.61 12.34 16.25 13.08 16.25 14C16.25 14.68 16.47 15.23 16.91 15.65C17.35 16.05 18.1 16.37 19.16 16.61L22.43 17.33C24.35 17.75 25.76 18.42 26.66 19.34C27.56 20.24 28.01 21.43 28.01 22.91C28.01 24.07 27.72 25.1 27.14 26C26.56 26.88 25.76 27.59 24.74 28.13C23.74 28.65 22.57 28.98 21.23 29.12L21.8 28.49V31.19C21.8 31.61 21.66 31.96 21.38 32.24C21.1 32.54 20.74 32.69 20.3 32.69Z" fill="#37C77F"/>
</g>
<defs>
<clipPath id="clip0_48636_396">
<rect width="40" height="40" fill="white" transform="translate(40 40) rotate(-180)"/>
</clipPath>
</defs>
</svg>
