<svg width="521" height="734" viewBox="0 0 521 734" fill="none" xmlns="http://www.w3.org/2000/svg">
<path d="M183.114 199.194L212.537 207.693L154.509 219.095L151.545 201.271L154.209 200.942L128.998 185.627C128.998 185.627 209.945 157.537 224.063 167.313C238.182 177.089 248.201 193.778 248.201 193.778L183.114 199.194Z" fill="#6100FF"/>
<path d="M221.847 166.039C221.847 166.039 158.007 181.209 180.204 214.233L162.253 218.1L131.611 184.869C131.611 184.869 199.178 160.443 221.847 166.039Z" fill="black"/>
<path d="M396.428 690.102C396.428 690.102 392.958 690.304 387.085 690.629C359.916 692.125 281.34 696.175 257.198 694.428C252.743 694.106 250.143 693.586 250.055 692.817C249.83 690.817 250.218 682.746 250.827 672.993C251.412 663.618 252.201 652.694 252.844 644.118C253.487 635.543 253.979 629.32 253.979 629.32L293.952 631.018L316.378 643.946L316.599 644.076L396.428 690.102Z" fill="#6100FF"/>
<path d="M341.701 645.677L234.409 648.595L227.451 433.798C227.029 420.762 232.276 408.107 242.038 398.616C251.8 389.124 265.277 383.575 279.505 383.188C286.55 382.996 293.567 384.078 300.155 386.371C306.744 388.664 312.775 392.124 317.905 396.553C323.034 400.981 327.161 406.292 330.05 412.182C332.939 418.072 334.534 424.426 334.743 430.881L341.701 645.677Z" fill="#6100FF"/>
<path d="M131.235 632.391L137.276 694.148L261.389 697.522L200.259 630.502L131.235 632.391Z" fill="#6100FF"/>
<path d="M260.407 352.392L300.258 283.953L422.395 343.655C432.301 348.496 439.701 356.745 442.969 366.586C446.236 376.427 445.103 387.054 439.818 396.13C434.534 405.206 425.531 411.986 414.79 414.98C404.049 417.973 392.45 416.935 382.544 412.093L260.407 352.392Z" fill="#E9BEB0"/>
<path d="M39.7672 228.35L116.016 194.638L186.759 328.954C191.638 338.218 192.301 348.879 188.601 358.591C184.901 368.302 177.143 376.27 167.031 380.74C156.92 385.211 145.285 385.818 134.685 382.428C124.085 379.039 115.389 371.93 110.51 362.666L39.7672 228.35Z" fill="#6100FF"/>
<path d="M254.923 236.093C254.922 241.84 252.559 247.377 248.304 251.6C244.049 255.824 238.215 258.425 231.962 258.885C231.302 258.935 230.634 258.958 229.962 258.958C227.686 258.959 225.421 258.676 223.228 258.116L223.128 258.09C218.663 256.926 214.64 254.644 211.513 251.501C208.385 248.357 206.276 244.477 205.423 240.296C204.57 236.115 205.006 231.799 206.683 227.833C208.36 223.866 211.211 220.407 214.915 217.844C218.62 215.28 223.032 213.714 227.654 213.322C232.277 212.929 236.927 213.725 241.083 215.621C245.239 217.517 248.735 220.437 251.179 224.054C253.623 227.67 254.918 231.839 254.918 236.093H254.923Z" fill="#6100FF"/>
<path d="M278.276 479.257H174.514C159.013 479.257 144.148 473.615 133.187 463.573C122.226 453.531 116.069 439.91 116.069 425.708L116.069 349.723C116.073 323.212 127.57 297.788 148.031 279.042C168.493 260.297 196.243 249.765 225.178 249.763C254.116 249.762 281.869 260.292 302.333 279.038C322.797 297.784 334.296 323.21 334.3 349.723V427.95C334.294 441.56 328.389 454.611 317.883 464.232C307.377 473.854 293.13 479.258 278.276 479.257Z" fill="#6100FF"/>
<path d="M135.77 153.219L176.31 221.317L98.8145 260.045C90.3076 264.296 80.3057 265.277 71.0093 262.772C61.713 260.267 53.8835 254.481 49.2435 246.686L43.6942 237.365C39.0541 229.571 37.9834 220.407 40.7177 211.889C43.452 203.372 49.7673 196.198 58.2743 191.947L135.77 153.219Z" fill="#6100FF"/>
<path d="M16.7404 704.965H477.425V699.511H16.7404V704.965Z" fill="#9804F2"/>
<path d="M249.717 250.069C247.594 252.592 244.917 254.68 241.86 256.199C238.803 257.717 235.433 258.632 231.966 258.885C229.03 259.029 226.086 258.772 223.233 258.12L223.132 258.093C218.944 257 215.14 254.922 212.1 252.065C209.059 249.208 206.887 245.672 205.8 241.808C204.712 237.944 204.748 233.887 205.902 230.039C207.056 226.191 209.289 222.687 212.378 219.875C209.122 239.948 242.002 248.374 249.717 250.069Z" fill="black"/>
<path d="M224.56 646.37L117.22 647.52L114.575 440.251C114.492 433.794 115.799 427.386 118.419 421.391C121.04 415.397 124.924 409.934 129.849 405.315C134.774 400.695 140.644 397.01 147.124 394.469C153.603 391.929 160.565 390.582 167.613 390.507C181.846 390.354 195.562 395.388 205.744 404.501C215.926 413.615 221.74 426.061 221.907 439.101L224.552 646.37L224.56 646.37Z" fill="#6100FF"/>
<path d="M356.731 276.216L386.617 293.745L401.216 314.993L384.384 324.337L356.731 276.216Z" fill="#E9BEB0"/>
<path d="M385.661 242.966C385.661 242.966 413.878 297.578 371.989 303.135L380.255 318.232L427.733 318.477C427.733 318.477 404.877 255.316 385.661 242.966Z" fill="black"/>
<path d="M350.62 311.113L433.895 297.123L449.815 376.675C451.562 385.408 449.452 394.419 443.948 401.726C438.444 409.033 429.998 414.038 420.466 415.639L409.067 417.554C399.536 419.155 389.701 417.222 381.726 412.179C373.75 407.136 368.288 399.397 366.54 390.664L350.62 311.113Z" fill="#6100FF"/>
<path d="M261.752 231.407L379.896 217.637L384.905 363.749L267.179 383.256L261.752 231.407Z" fill="#F2BD2B" stroke="white" stroke-width="2" stroke-miterlimit="10"/>
<path d="M420.39 299.873C420.39 299.873 400.406 245.877 383.169 242.216C365.932 238.556 345.522 242.216 345.522 242.216L392.002 303.698L420.39 299.873Z" fill="#6100FF"/>
<path d="M385.661 242.966C385.661 242.966 400.531 276.809 382.697 291.783L392.002 303.698L420.39 299.873L405.315 267.518C405.315 267.518 398.519 250.7 385.661 242.966Z" fill="black"/>
<path d="M285.131 251.297C285.131 251.297 285.911 251.713 287.272 252.486" stroke="black" stroke-width="2" stroke-miterlimit="10"/>
<path d="M291.472 254.934C307.256 264.374 345.522 289.928 324.373 304.6C298.072 322.822 269.267 369.869 315.606 358.011C357.941 347.179 342.086 313.677 352.401 320.527" stroke="black" stroke-width="2" stroke-miterlimit="10" stroke-dasharray="11.93 11.93"/>
<path d="M354.309 321.981C354.856 322.444 355.449 322.975 356.1 323.587" stroke="black" stroke-width="2" stroke-miterlimit="10"/>
<path d="M370.92 327.221L362.988 340.608" stroke="black" stroke-width="2" stroke-miterlimit="10"/>
<path d="M362.571 329.133L372.59 337.166" stroke="black" stroke-width="2" stroke-miterlimit="10"/>
<path d="M275.32 252.635C279.009 252.635 282 249.895 282 246.515C282 243.135 279.009 240.396 275.32 240.396C271.631 240.396 268.641 243.135 268.641 246.515C268.641 249.895 271.631 252.635 275.32 252.635Z" stroke="black" stroke-width="2" stroke-miterlimit="10"/>
<path d="M246.515 16.6384C238.245 16.6365 230.122 18.6444 222.976 22.4573C215.829 26.2701 209.914 31.7514 205.834 38.3422C201.754 44.9329 199.655 52.3973 199.75 59.9739C199.846 67.5505 202.134 74.9682 206.379 81.4706H206.229L251.524 147.068L285.06 83.7272C289.881 77.2941 292.693 69.7765 293.192 61.9861C293.691 54.1956 291.857 46.4283 287.89 39.5228C283.922 32.6173 277.972 26.8359 270.68 22.8028C263.388 18.7697 255.032 16.6382 246.515 16.6384ZM247.559 92.1803C240.871 92.1803 234.333 90.3633 228.772 86.9589C223.211 83.5546 218.877 78.7159 216.318 73.0547C213.758 67.3936 213.089 61.1642 214.393 55.1543C215.698 49.1444 218.919 43.624 223.648 39.2911C228.377 34.9582 234.402 32.0075 240.962 30.8121C247.521 29.6166 254.32 30.2302 260.499 32.5751C266.678 34.9201 271.959 38.8911 275.675 43.986C279.39 49.0809 281.373 55.0709 281.373 61.1985C281.373 69.4154 277.811 77.2957 271.469 83.1059C265.128 88.9162 256.527 92.1803 247.559 92.1803Z" fill="#F2BD2B"/>
<path d="M135.677 153.379C135.677 153.379 57.3017 229.269 156.605 272.984C156.605 272.984 121.763 296.866 117.868 335.471L116.277 370.553C116.277 370.553 111.046 364.476 108.542 358.394C106.037 352.312 40.8868 230.585 40.8868 230.585C40.8868 230.585 30.2539 207.559 54.5756 194.049C78.8973 180.54 135.677 153.379 135.677 153.379Z" fill="black"/>
<path d="M158.538 270.941C158.538 270.941 110.629 456.694 335.227 463.961C335.227 463.961 256.743 580.621 341.906 645.645L234.2 650.234L229.962 477.62L222.819 478.167L224.598 646.41L134.287 647.377L117.308 647.557L113.969 358.011C113.969 358.011 108.124 290.693 158.638 270.804" fill="black"/>
<path d="M137.347 695.368L261.335 697.663C261.335 697.663 168.832 683.129 215.084 646.41L131.502 646.792L137.347 695.368Z" fill="black"/>
<path d="M387.085 690.629C359.916 692.125 281.34 696.176 257.198 694.428L250.201 686.602L250.827 672.993L252.151 644.115H252.844L316.378 643.943H316.712L316.599 644.073C296.619 667.064 360.058 684.445 387.085 690.629Z" fill="black"/>
<path d="M333.139 389.376L332.931 372.37L384.905 363.749C384.905 363.749 410.029 395.672 450.485 378.371C450.485 378.371 457.228 413.66 414.166 416.816C414.166 416.816 396.014 426.405 356.43 399.095L333.139 389.376Z" fill="black"/>
<path d="M420.39 299.49C420.39 299.49 400.406 245.877 383.169 242.216C365.932 238.556 345.522 242.216 345.522 242.216L392.42 304.08L420.39 299.49Z" stroke="white" stroke-width="2" stroke-miterlimit="10"/>
</svg>
