<svg width="279" height="158" viewBox="0 0 279 158" fill="none" xmlns="http://www.w3.org/2000/svg">
<path d="M159.019 105.2C160.811 105.2 162.176 104.795 163.115 103.984C164.096 103.131 164.587 101.851 164.587 100.144C164.587 98.5227 164.075 97.2853 163.051 96.432C162.07 95.536 160.619 95.088 158.699 95.088C158.016 95.088 157.44 95.1093 156.971 95.152C156.544 95.152 156.096 95.1947 155.627 95.28V105.2H159.019ZM155.691 125.744C155.222 125.872 154.475 126 153.451 126.128C152.47 126.256 151.488 126.32 150.507 126.32C149.526 126.32 148.651 126.235 147.883 126.064C147.158 125.936 146.539 125.68 146.027 125.296C145.515 124.912 145.131 124.379 144.875 123.696C144.619 123.013 144.491 122.117 144.491 121.008V90.864C144.491 89.968 144.726 89.2853 145.195 88.816C145.707 88.304 146.39 87.8987 147.243 87.6C148.694 87.088 150.336 86.7253 152.171 86.512C154.048 86.256 155.926 86.128 157.803 86.128C163.691 86.128 168.192 87.3867 171.307 89.904C174.422 92.4213 175.979 95.8347 175.979 100.144C175.979 102.235 175.638 104.133 174.955 105.84C174.315 107.504 173.334 108.955 172.011 110.192C170.731 111.387 169.088 112.325 167.083 113.008C165.12 113.648 162.838 113.968 160.235 113.968H155.691V125.744ZM179.965 86.256C179.965 84.6347 180.499 83.2693 181.565 82.16C182.675 81.0507 184.125 80.496 185.917 80.496C187.709 80.496 189.139 81.0507 190.205 82.16C191.315 83.2693 191.869 84.6347 191.869 86.256C191.869 87.8773 191.315 89.2427 190.205 90.352C189.139 91.4613 187.709 92.016 185.917 92.016C184.125 92.016 182.675 91.4613 181.565 90.352C180.499 89.2427 179.965 87.8773 179.965 86.256ZM191.357 125.936C190.888 126.021 190.184 126.128 189.245 126.256C188.349 126.427 187.432 126.512 186.493 126.512C185.555 126.512 184.701 126.448 183.933 126.32C183.208 126.192 182.589 125.936 182.077 125.552C181.565 125.168 181.16 124.656 180.861 124.016C180.605 123.333 180.477 122.459 180.477 121.392V95.344C180.947 95.2587 181.629 95.152 182.525 95.024C183.464 94.8533 184.403 94.768 185.341 94.768C186.28 94.768 187.112 94.832 187.837 94.96C188.605 95.088 189.245 95.344 189.757 95.728C190.269 96.112 190.653 96.6453 190.909 97.328C191.208 97.968 191.357 98.8213 191.357 99.888V125.936ZM217.996 106.288C217.996 104.965 217.612 104.005 216.844 103.408C216.119 102.768 215.116 102.448 213.836 102.448C212.983 102.448 212.129 102.555 211.276 102.768C210.465 102.981 209.761 103.301 209.164 103.728V125.936C208.737 126.064 208.055 126.192 207.116 126.32C206.22 126.448 205.281 126.512 204.3 126.512C203.361 126.512 202.508 126.448 201.74 126.32C201.015 126.192 200.396 125.936 199.884 125.552C199.372 125.168 198.967 124.656 198.668 124.016C198.412 123.333 198.284 122.459 198.284 121.392V102.192C198.284 101.04 198.519 100.101 198.988 99.376C199.5 98.6507 200.183 97.9893 201.036 97.392C202.487 96.368 204.3 95.536 206.476 94.896C208.695 94.256 211.148 93.936 213.836 93.936C218.657 93.936 222.369 95.0027 224.972 97.136C227.575 99.2267 228.876 102.149 228.876 105.904V125.936C228.449 126.064 227.767 126.192 226.828 126.32C225.932 126.448 224.993 126.512 224.012 126.512C223.073 126.512 222.22 126.448 221.452 126.32C220.727 126.192 220.108 125.936 219.596 125.552C219.084 125.168 218.679 124.656 218.38 124.016C218.124 123.333 217.996 122.459 217.996 121.392V106.288Z" fill="white"/>
<path d="M11.9122 118.584C10.4296 118.554 9.01965 118 7.98837 117.04C6.9571 116.081 6.38776 114.794 6.40396 113.459C6.42016 112.124 7.02059 110.848 8.0749 109.91C9.12922 108.971 10.5523 108.444 12.0353 108.444C13.5182 108.444 14.9413 108.971 15.9956 109.91C17.0499 110.848 17.6504 112.124 17.6666 113.459C17.6828 114.794 17.1134 116.081 16.0821 117.04C15.0509 118 13.6409 118.554 12.1583 118.584H11.9122ZM11.9122 110.777H11.7849C10.9841 110.792 10.2226 111.092 9.66549 111.61C9.10842 112.128 8.80083 112.823 8.8095 113.544C8.81817 114.265 9.1424 114.954 9.71179 115.461C10.2812 115.968 11.0498 116.253 11.8507 116.253C12.6516 116.253 13.4202 115.968 13.9896 115.461C14.559 114.954 14.8832 114.265 14.8919 113.544C14.9006 112.823 14.593 112.128 14.0359 111.61C13.4789 111.092 12.7173 110.792 11.9165 110.777H11.9122Z" fill="#E7F6FF"/>
<path d="M7.89744 127.093C9.24686 127.041 10.2936 126.014 10.2354 124.799C10.1772 123.584 9.03607 122.641 7.68664 122.694C6.33721 122.746 5.29047 123.773 5.34868 124.988C5.40689 126.203 6.54801 127.146 7.89744 127.093Z" fill="#E7F6FF"/>
<path d="M153.057 36.6101C151.713 36.6119 150.413 36.1804 149.392 35.3939C148.371 34.6073 147.696 33.5176 147.49 32.322C147.284 31.1264 147.56 29.9039 148.269 28.8758C148.977 27.8477 150.071 27.0818 151.352 26.7169C152.634 26.352 154.018 26.4121 155.254 26.8863C156.49 27.3605 157.497 28.2176 158.092 29.3023C158.687 30.3871 158.832 31.6278 158.499 32.8C158.166 33.9722 157.378 34.9984 156.278 35.6928C155.334 36.2883 154.21 36.6085 153.057 36.6101V36.6101ZM153.04 28.8034C152.253 28.8027 151.497 29.0752 150.929 29.5641C150.36 30.0531 150.023 30.7207 149.988 31.428C149.952 32.1352 150.221 32.8274 150.739 33.3603C151.257 33.8932 151.983 34.2258 152.766 34.2886C153.549 34.3514 154.329 34.1396 154.943 33.6974C155.557 33.2553 155.958 32.6168 156.062 31.9151C156.166 31.2134 155.965 30.5026 155.502 29.9309C155.038 29.3591 154.347 28.9706 153.573 28.8462C153.397 28.8179 153.219 28.8036 153.04 28.8034V28.8034Z" fill="#E7F6FF"/>
<path d="M141.575 36.3316C142.681 35.6334 142.949 34.2602 142.174 33.2646C141.398 32.2689 139.873 32.0278 138.767 32.726C137.661 33.4242 137.393 34.7973 138.169 35.793C138.944 36.7887 140.47 37.0298 141.575 36.3316Z" fill="#E7F6FF"/>
<path d="M277.588 62.7277C277.588 60.5908 276.645 58.5413 274.966 57.0303C273.288 55.5192 271.012 54.6703 268.638 54.6703C268.44 54.6703 268.243 54.6703 268.049 54.6878C268.062 54.5129 268.068 54.3361 268.068 54.1573C268.068 53.0121 267.797 51.8801 267.272 50.8368C266.748 49.7935 265.982 48.8628 265.027 48.1068C264.072 47.3507 262.948 46.7868 261.732 46.4524C260.515 46.1181 259.234 46.0211 257.972 46.1679C256.711 46.3146 255.498 46.7018 254.416 47.3036C253.334 47.9054 252.407 48.708 251.696 49.6578C250.986 50.6077 250.508 51.683 250.296 52.812C250.083 53.9411 250.14 55.098 250.463 56.2056C249.382 55.4994 248.138 55.0202 246.824 54.8032C245.51 54.5861 244.158 54.6368 242.869 54.9514C241.579 55.266 240.384 55.8366 239.372 56.6213C238.359 57.406 237.554 58.3849 237.017 59.4861C236.479 60.5874 236.222 61.783 236.265 62.9853C236.307 64.1877 236.648 65.3661 237.263 66.4343C237.877 67.5024 238.75 68.4331 239.816 69.1581C240.882 69.8831 242.115 70.3839 243.424 70.6238C243.959 71.9003 244.845 73.0336 245.999 73.9176C247.153 74.8016 248.537 75.4074 250.022 75.6781C251.507 75.9488 253.044 75.8757 254.489 75.4655C255.934 75.0553 257.24 74.3216 258.284 73.333C259.352 74.0589 260.587 74.5599 261.899 74.7991C263.211 75.0382 264.566 75.0094 265.863 74.7148C267.161 74.4202 268.369 73.8672 269.398 73.0967C270.427 72.3261 271.251 71.3576 271.809 70.2624C273.508 69.6827 274.97 68.6514 276.002 67.3056C277.034 65.9598 277.587 64.3632 277.588 62.7277Z" fill="white"/>
<path d="M41.3245 43.3519C41.3245 41.2152 40.3819 39.1661 38.704 37.6551C37.0262 36.1441 34.7505 35.295 32.3773 35.2944C32.1787 35.2944 31.9823 35.2944 31.788 35.3119C31.801 35.137 31.8075 34.9602 31.8075 34.7814C31.8072 33.6362 31.5358 32.5042 31.0114 31.4609C30.487 30.4176 29.7216 29.4869 28.7662 28.7309C27.8108 27.9749 26.6874 27.4109 25.4709 27.0765C24.2544 26.7422 22.9726 26.6452 21.7112 26.792C20.4497 26.9387 19.2375 27.3259 18.1553 27.9277C17.0732 28.5295 16.1459 29.3321 15.4354 30.2819C14.7248 31.2318 14.2474 32.3071 14.0348 33.4361C13.8221 34.5652 13.8793 35.7221 14.2024 36.8297C13.1209 36.1237 11.8775 35.6447 10.5635 35.4277C9.24944 35.2108 7.89816 35.2615 6.60874 35.576C5.31932 35.8906 4.12448 36.4611 3.11188 37.2456C2.09928 38.0302 1.29461 39.0089 0.756912 40.1099C0.219212 41.211 -0.0378772 42.4065 0.00450533 43.6086C0.0468879 44.8108 0.387667 45.9892 1.00184 47.0573C1.61602 48.1255 2.488 49.0562 3.55383 49.7814C4.61965 50.5065 5.85227 51.0077 7.16125 51.248C7.69615 52.5236 8.58186 53.6562 9.73546 54.5396C10.8891 55.4231 12.2728 56.0285 13.7571 56.2992C15.2414 56.5699 16.7778 56.497 18.2223 56.0874C19.6668 55.6778 20.9722 54.9448 22.0163 53.9571C23.0846 54.6831 24.3201 55.1841 25.6318 55.4232C26.9436 55.6624 28.2983 55.6335 29.596 55.3389C30.8938 55.0443 32.1017 54.4913 33.1306 53.7208C34.1596 52.9502 34.9836 51.9817 35.5417 50.8865C37.2411 50.3074 38.7044 49.2764 39.7373 47.9306C40.7703 46.5847 41.3238 44.9877 41.3245 43.3519V43.3519Z" fill="white"/>
<path d="M205.963 158H77.2059V155.474H205.963C206.335 155.474 206.692 155.607 206.955 155.844C207.218 156.08 207.366 156.402 207.366 156.737C207.366 157.072 207.218 157.393 206.955 157.63C206.692 157.867 206.335 158 205.963 158V158Z" fill="#426572"/>
<path d="M71.4469 158H63.5747C63.2026 158 62.8457 157.867 62.5826 157.63C62.3195 157.393 62.1716 157.072 62.1716 156.737C62.1716 156.402 62.3195 156.08 62.5826 155.844C62.8457 155.607 63.2026 155.474 63.5747 155.474H71.4469C71.819 155.474 72.1759 155.607 72.439 155.844C72.7021 156.08 72.8499 156.402 72.8499 156.737C72.8499 157.072 72.7021 157.393 72.439 157.63C72.1759 157.867 71.819 158 71.4469 158V158Z" fill="#426572"/>
<path d="M58.4655 158H55.9572C55.5851 158 55.2283 157.867 54.9651 157.63C54.702 157.393 54.5542 157.072 54.5542 156.737C54.5542 156.402 54.702 156.08 54.9651 155.844C55.2283 155.607 55.5851 155.474 55.9572 155.474H58.4655C58.8376 155.474 59.1945 155.607 59.4576 155.844C59.7207 156.08 59.8685 156.402 59.8685 156.737C59.8685 157.072 59.7207 157.393 59.4576 157.63C59.1945 157.867 58.8376 158 58.4655 158V158Z" fill="#426572"/>
<path d="M251.111 158H211.536V155.474H251.111C251.483 155.474 251.84 155.607 252.103 155.844C252.366 156.08 252.514 156.402 252.514 156.737C252.514 157.072 252.366 157.393 252.103 157.63C251.84 157.867 251.483 158 251.111 158V158Z" fill="#426572"/>
<path d="M230.575 157.996H191V155.47H230.575C230.947 155.47 231.304 155.603 231.567 155.84C231.83 156.077 231.978 156.398 231.978 156.733C231.978 157.068 231.83 157.39 231.567 157.626C231.304 157.863 230.947 157.996 230.575 157.996V157.996Z" fill="#426572"/>
<path d="M80.5747 157.996H41V155.47H80.5747C80.9468 155.47 81.3037 155.603 81.5668 155.84C81.8299 156.077 81.9777 156.398 81.9777 156.733C81.9777 157.068 81.8299 157.39 81.5668 157.626C81.3037 157.863 80.9468 157.996 80.5747 157.996V157.996Z" fill="#426572"/>
<path d="M48.7822 158H9.20538V155.474H48.7822C49.1543 155.474 49.5112 155.607 49.7743 155.844C50.0375 156.08 50.1853 156.402 50.1853 156.737C50.1853 157.072 50.0375 157.393 49.7743 157.63C49.5112 157.867 49.1543 158 48.7822 158V158Z" fill="#426572"/>
<path d="M62.8128 12.02C61.8257 12.02 60.8608 11.7565 60.0402 11.2628C59.2195 10.7691 58.5798 10.0674 58.2021 9.24633C57.8244 8.42531 57.7255 7.52188 57.9181 6.65029C58.1107 5.77869 58.586 4.97808 59.2839 4.3497C59.9818 3.72132 60.8711 3.29338 61.8391 3.12001C62.8072 2.94664 63.8106 3.03562 64.7225 3.3757C65.6345 3.71578 66.4139 4.29168 66.9622 5.03058C67.5106 5.76948 67.8033 6.6382 67.8033 7.52686C67.8016 8.71806 67.2752 9.86002 66.3397 10.7023C65.4042 11.5446 64.1358 12.0185 62.8128 12.02V12.02ZM62.8128 5.36384C62.3381 5.36384 61.8741 5.49053 61.4794 5.72791C61.0848 5.96529 60.7771 6.30269 60.5954 6.69746C60.4136 7.09223 60.366 7.52666 60.4584 7.94581C60.5509 8.36497 60.7793 8.75004 61.1147 9.05235C61.4502 9.35466 61.8777 9.56064 62.3432 9.64424C62.8086 9.72785 63.2912 9.68533 63.7298 9.52206C64.1684 9.35879 64.5435 9.0821 64.8075 8.72697C65.0715 8.37183 65.2126 7.9542 65.213 7.52686C65.2125 6.95369 64.9595 6.40411 64.5095 5.99863C64.0596 5.59315 63.4494 5.36487 62.8128 5.36384V5.36384Z" fill="#E7F6FF"/>
<path d="M73.4241 12.9879C74.5757 12.9879 75.5093 12.1474 75.5093 11.1105C75.5093 10.0737 74.5757 9.23318 73.4241 9.23318C72.2725 9.23318 71.339 10.0737 71.339 11.1105C71.339 12.1474 72.2725 12.9879 73.4241 12.9879Z" fill="#E7F6FF"/>
<path opacity="0.5" d="M103.667 109.107V113.231C102.342 117.027 100.259 121.464 97.5242 126.361C96.3996 128.305 95.193 130.355 93.9043 132.462C94.785 131.124 95.6312 129.787 96.4514 128.472C95.4973 130.102 94.4871 131.793 93.4294 133.515V127.102C93.5359 126.923 93.6417 126.744 93.7467 126.565C93.641 126.734 93.5309 126.903 93.4294 127.072V126.835C93.9058 126.027 94.3684 125.233 94.8174 124.455C97.7875 119.137 99.9979 114.361 101.293 110.361C102.087 109.963 102.882 109.541 103.667 109.107V109.107Z" fill="#BBD2E5"/>
<path opacity="0.1" d="M89.8852 2.98509C54.865 2.91513 33.0508 22.7574 32.9752 54.0018C32.9515 63.6567 38.5874 78.7221 48.3311 96.9203C52.7302 104.599 58.064 113.128 63.7323 121.658C70.6396 132.178 78.1945 142.703 85.7494 152.374L89.5225 156.929C90.7874 155.509 92.0523 154.09 93.3194 152.389C100.917 142.464 108.511 132.254 115.475 121.759C121.178 113.247 126.244 104.739 130.677 97.0777C140.822 78.9184 146.532 63.8763 146.555 54.2214C146.62 23.8302 123.958 3.05117 89.8852 2.98509V2.98509ZM89.6887 85.353C68.8567 85.3161 51.8668 69.9456 51.9121 51.1955C51.9574 32.4454 69.0293 17.1448 89.8506 17.1857C110.672 17.2265 127.67 32.597 127.625 51.3432C127.58 70.0894 110.516 85.3939 89.6866 85.353H89.6887Z" fill="#070707"/>
<path d="M123.211 49.0364C123.166 67.7884 106.091 83.089 85.2702 83.0462C67.2377 83.0112 52.0697 71.479 48.3591 56.2056C47.9769 54.2435 47.7877 52.2548 47.7936 50.2627C47.8389 31.5184 64.913 16.212 85.7321 16.2528C103.739 16.2878 118.887 27.7909 122.626 43.0215C122.624 43.0298 122.624 43.0384 122.626 43.0467C123.018 45.0237 123.214 47.0282 123.211 49.0364V49.0364Z" fill="white"/>
<path d="M85.8444 1.10775C50.8264 1.03973 29.01 20.8801 28.9367 52.1245C28.9129 61.7794 34.5489 76.8447 44.2925 95.0429C48.6895 102.723 54.0319 111.253 59.6915 119.787C66.5989 130.306 74.1538 140.832 81.7087 150.502L85.4775 155.056C86.7424 153.635 88.0073 152.216 89.2743 150.516C96.8724 140.591 104.466 130.38 111.43 119.886C117.132 111.373 122.199 102.865 126.632 95.2042C136.777 77.0449 142.487 62.0029 142.51 52.3479C142.582 21.9606 119.917 1.16605 85.8444 1.10775V1.10775ZM85.648 83.4757C64.8267 83.4349 47.8282 68.0683 47.8735 49.3182C47.9189 30.568 64.9908 15.2675 85.812 15.3083C106.633 15.3491 123.632 30.7196 123.587 49.4659C123.541 68.2121 106.469 83.5165 85.648 83.4757Z" fill="#6100FF"/>
<path d="M124.448 99.7343C120.562 106.383 116.211 113.533 111.417 120.688C104.455 131.183 96.8595 141.392 89.2636 151.317C87.9986 153.019 86.7337 154.426 85.4645 155.858L81.6914 151.303C74.1365 141.633 66.5967 131.107 59.6743 120.597C54.0103 112.061 48.6657 103.532 44.2731 95.8533C34.5359 77.6474 28.9021 62.5781 28.9237 52.9251C28.9539 40.0325 32.6882 29.0852 39.5243 20.6644C36.8196 27.0135 35.3842 34.243 35.3648 42.213C35.341 51.8679 40.977 66.9352 50.7207 85.1315C55.1198 92.8099 60.46 101.34 66.1218 109.875C73.0292 120.393 80.5841 130.918 88.1389 140.581L91.9121 145.136C93.1791 143.714 94.444 142.297 95.7111 140.595C103.307 130.672 110.903 120.459 117.864 109.966C120.159 106.544 122.352 103.11 124.448 99.7343V99.7343Z" fill="#5202D5"/>
<path d="M85.4234 157.532L80.4587 151.536C72.9038 141.862 65.2712 131.21 58.3855 120.731C52.4819 111.834 47.1417 103.252 42.9433 95.9194L42.926 95.8864C32.6104 76.6154 27.3932 61.9756 27.4126 52.3751C27.4493 36.6432 32.9104 23.4318 43.2066 14.1656C53.5029 4.89936 68.1809 0 85.6565 0H85.8378C94.3986 0.0155474 102.4 1.31375 109.623 3.8538C116.539 6.23164 122.814 9.90803 128.029 14.6385C133.245 19.3689 137.282 25.0449 139.873 31.2891C142.633 37.7781 144.023 44.9455 144.004 52.5967C143.98 62.2846 138.435 77.3151 127.966 96.0613V96.0788C124.02 102.898 118.721 111.875 112.716 120.836C105.271 132.053 97.3105 142.647 90.5067 151.54C89.2332 153.252 87.9446 154.7 86.6969 156.101L85.4234 157.532ZM82.9152 149.952L85.5054 153.077C86.3494 152.106 87.174 151.134 88.0072 150.009C94.7958 141.141 102.722 130.588 110.121 119.439C116.083 110.54 121.346 101.616 125.277 94.833C135.532 76.4677 140.965 61.861 140.986 52.5928C141.021 38.0172 135.806 25.556 125.898 16.5638C115.956 7.53852 102.098 2.75188 85.8313 2.72079H85.6565C68.999 2.72079 55.0635 7.34224 45.3457 16.0896C35.628 24.8369 30.4734 37.3836 30.4345 52.379C30.413 61.4354 35.669 76.0654 45.6328 94.6873C49.8031 101.967 55.1088 110.491 60.9779 119.34C67.827 129.758 75.4099 140.344 82.9173 149.956L82.9152 149.952ZM85.7213 85.0848H85.6349C77.8487 85.0777 70.2402 82.9896 63.7735 79.0851C57.3069 75.1805 52.2732 69.6355 49.3106 63.1525C46.3479 56.6696 45.5896 49.5408 47.1318 42.6694C48.674 35.7981 52.4472 29.4937 57.9732 24.5551C61.6109 21.2673 65.9349 18.6596 70.6963 16.8823C75.4577 15.1049 80.5625 14.1928 85.7169 14.1986H85.8033C93.5899 14.2059 101.199 16.2943 107.666 20.1992C114.133 24.104 119.166 29.6495 122.129 36.1329C125.092 42.6162 125.85 49.7455 124.307 56.6171C122.765 63.4888 118.991 69.7935 113.465 74.7322C109.827 78.0202 105.503 80.6278 100.742 82.4052C95.9805 84.1826 90.8757 85.0946 85.7213 85.0887V85.0848ZM85.6414 82.3641H85.7213C95.361 82.3733 104.61 78.9345 111.434 72.8041C118.257 66.6736 122.096 58.3538 122.107 49.6748C122.117 40.9958 118.298 32.6685 111.489 26.525C104.679 20.3814 95.4387 16.9248 85.799 16.9155H85.7191C76.0794 16.9062 66.8304 20.3451 60.0068 26.4755C53.1832 32.6059 49.344 40.9258 49.3337 49.6048C49.3234 58.2838 53.1428 66.611 59.9518 72.7546C66.7609 78.8982 76.0017 82.3548 85.6414 82.3641V82.3641Z" fill="#426572"/>
<path d="M119.168 18.2681C126.703 24.5668 131.921 32.7077 134.004 41.7932C134.748 45.1347 135.114 48.5357 135.096 51.9437C135.096 53.444 137.686 53.446 137.686 51.9437C137.673 41.0061 133.999 30.4242 126.395 21.8363C124.743 19.9783 122.939 18.2341 120.998 16.6182C119.779 15.5979 117.942 17.244 119.166 18.2681H119.168Z" fill="white"/>
<path d="M105.606 10.1058L105.757 10.1621C105.343 10.0125 105.973 10.2496 106.068 10.2885C106.7 10.5469 107.322 10.8249 107.937 11.1125C110.06 12.1208 112.106 13.257 114.059 14.5135C115.421 15.3822 116.718 13.361 115.367 12.5001C112.546 10.7005 109.524 9.00192 106.301 7.85725C104.751 7.30532 104.078 9.55969 105.612 10.1058H105.606Z" fill="white"/>
<path d="M271.296 115.664C271.296 117.968 270.891 120.08 270.08 122C269.312 123.877 268.182 125.499 266.688 126.864C265.195 128.187 263.382 129.211 261.248 129.936C259.115 130.661 256.704 131.024 254.016 131.024C251.328 131.024 248.918 130.661 246.784 129.936C244.651 129.211 242.838 128.187 241.344 126.864C239.851 125.499 238.699 123.877 237.888 122C237.12 120.08 236.736 117.968 236.736 115.664V91.216C237.206 91.1307 237.952 91.024 238.976 90.896C240 90.7253 240.982 90.64 241.92 90.64C242.902 90.64 243.755 90.7253 244.48 90.896C245.248 91.024 245.888 91.28 246.4 91.664C246.912 92.048 247.296 92.5813 247.552 93.264C247.808 93.9467 247.936 94.8427 247.936 95.952V115.472C247.936 117.52 248.491 119.12 249.6 120.272C250.752 121.424 252.224 122 254.016 122C255.851 122 257.323 121.424 258.432 120.272C259.542 119.12 260.096 117.52 260.096 115.472V91.216C260.566 91.1307 261.312 91.024 262.336 90.896C263.36 90.7253 264.342 90.64 265.28 90.64C266.262 90.64 267.115 90.7253 267.84 90.896C268.608 91.024 269.248 91.28 269.76 91.664C270.272 92.048 270.656 92.5813 270.912 93.264C271.168 93.9467 271.296 94.8427 271.296 95.952V115.664Z" fill="#F2BD2B"/>
<path d="M272.601 98.0825C272.15 98.0819 271.701 98.033 271.263 97.9367C269.877 97.6301 268.674 96.859 267.899 95.7808C267.124 94.7026 266.835 93.3986 267.091 92.1352C267.348 90.8717 268.13 89.744 269.279 88.9822C270.427 88.2205 271.855 87.8823 273.272 88.0365C274.688 88.1907 275.985 88.8259 276.899 89.8122C277.813 90.7985 278.274 92.0617 278.188 93.3438C278.103 94.6259 277.477 95.8302 276.438 96.7108C275.4 97.5915 274.027 98.0821 272.601 98.0825V98.0825ZM272.601 90.2738C271.859 90.2764 271.143 90.5231 270.589 90.9676C270.035 91.4121 269.681 92.0236 269.593 92.687C269.505 93.3504 269.689 94.02 270.111 94.5695C270.533 95.1191 271.164 95.5107 271.884 95.6707C272.301 95.761 272.735 95.7707 273.157 95.6993C273.578 95.6278 273.978 95.4768 274.331 95.2562C274.683 95.0355 274.979 94.7503 275.2 94.4191C275.421 94.088 275.561 93.7185 275.612 93.335C275.663 92.9514 275.623 92.5625 275.495 92.1938C275.367 91.8251 275.154 91.485 274.87 91.1959C274.585 90.9067 274.236 90.675 273.845 90.5161C273.454 90.3572 273.03 90.2746 272.601 90.2738V90.2738Z" fill="#E7F6FF"/>
<path d="M269.33 107.178C269.648 105.996 268.842 104.805 267.529 104.519C266.217 104.232 264.895 104.958 264.576 106.14C264.258 107.322 265.064 108.512 266.377 108.799C267.689 109.085 269.012 108.359 269.33 107.178Z" fill="#E7F6FF"/>
</svg>
