<svg width="143" height="108" viewBox="0 0 143 108" fill="none" xmlns="http://www.w3.org/2000/svg">
<g filter="url(#filter0_d_77631_266)">
<path d="M35.2555 45.405C34.3793 45.3866 33.546 45.0363 32.9366 44.4302C32.3271 43.8242 31.9906 43.0112 32.0002 42.1679C32.0098 41.3245 32.3646 40.5189 32.9877 39.9258C33.6108 39.3327 34.4518 39 35.3282 39C36.2046 39 37.0457 39.3327 37.6688 39.9258C38.2919 40.5189 38.6467 41.3245 38.6563 42.1679C38.6658 43.0112 38.3294 43.8242 37.7199 44.4302C37.1104 45.0363 36.2771 45.3866 35.4009 45.405H35.2555ZM35.2555 40.4736H35.1803C34.707 40.4835 34.2569 40.6726 33.9277 40.9998C33.5985 41.3271 33.4167 41.7662 33.4218 42.2217C33.427 42.6771 33.6186 43.1123 33.9551 43.4326C34.2916 43.753 34.7458 43.9327 35.2192 43.9327C35.6925 43.9327 36.1467 43.753 36.4832 43.4326C36.8197 43.1123 37.0114 42.6771 37.0165 42.2217C37.0216 41.7662 36.8398 41.3271 36.5106 40.9998C36.1814 40.6726 35.7313 40.4835 35.2581 40.4736H35.2555Z" fill="#E7F6FF"/>
<path d="M26.5686 49.8392C27.3661 49.806 27.9847 49.1571 27.9503 48.3896C27.9159 47.6222 27.2415 47.0268 26.444 47.0599C25.6465 47.0931 25.0279 47.742 25.0623 48.5095C25.0967 49.277 25.7711 49.8723 26.5686 49.8392Z" fill="#E7F6FF"/>
<path d="M117.599 23.126C116.805 23.1271 116.036 22.8546 115.433 22.3577C114.83 21.8608 114.431 21.1725 114.309 20.4173C114.187 19.662 114.351 18.8898 114.769 18.2404C115.188 17.5909 115.834 17.1071 116.591 16.8766C117.349 16.6461 118.167 16.684 118.897 16.9836C119.628 17.2832 120.223 17.8246 120.575 18.5098C120.926 19.195 121.012 19.9788 120.815 20.7192C120.618 21.4597 120.153 22.1079 119.502 22.5466C118.944 22.9227 118.28 23.125 117.599 23.126V23.126ZM117.589 18.1946C117.124 18.1942 116.677 18.3663 116.341 18.6752C116.005 18.984 115.806 19.4058 115.785 19.8525C115.764 20.2992 115.923 20.7365 116.229 21.0731C116.535 21.4098 116.964 21.6198 117.427 21.6595C117.89 21.6992 118.351 21.5654 118.714 21.2861C119.076 21.0068 119.313 20.6035 119.375 20.1602C119.436 19.717 119.318 19.268 119.044 18.9068C118.77 18.5457 118.361 18.3002 117.904 18.2216C117.8 18.2038 117.694 18.1947 117.589 18.1946V18.1946Z" fill="#E7F6FF"/>
<path d="M110.814 22.9501C111.467 22.509 111.625 21.6416 111.167 21.0127C110.709 20.3837 109.807 20.2314 109.154 20.6725C108.5 21.1135 108.342 21.9809 108.8 22.6098C109.259 23.2388 110.16 23.3911 110.814 22.9501Z" fill="#E7F6FF"/>
<path d="M51.5662 27.3846C51.5662 26.0349 51.0092 24.7405 50.0176 23.7861C49.026 22.8316 47.6811 22.2952 46.2786 22.2949C46.1612 22.2949 46.0451 22.2949 45.9303 22.3059C45.938 22.1954 45.9418 22.0837 45.9418 21.9708C45.9417 21.2474 45.7813 20.5323 45.4713 19.8733C45.1614 19.2142 44.7091 18.6263 44.1444 18.1488C43.5798 17.6712 42.9159 17.315 42.1969 17.1038C41.478 16.8926 40.7205 16.8313 39.975 16.924C39.2295 17.0167 38.5131 17.2613 37.8735 17.6415C37.234 18.0216 36.686 18.5286 36.2661 19.1286C35.8461 19.7286 35.564 20.4078 35.4383 21.121C35.3127 21.8342 35.3464 22.565 35.5374 23.2647C34.8982 22.8187 34.1634 22.5161 33.3868 22.3791C32.6102 22.242 31.8116 22.2741 31.0496 22.4728C30.2876 22.6715 29.5814 23.0318 28.983 23.5274C28.3846 24.023 27.909 24.6412 27.5912 25.3368C27.2735 26.0323 27.1215 26.7874 27.1466 27.5468C27.1716 28.3062 27.373 29.0506 27.736 29.7253C28.099 30.4 28.6143 30.988 29.2442 31.446C29.8741 31.9041 30.6026 32.2206 31.3761 32.3724C31.6923 33.1783 32.2157 33.8937 32.8975 34.4517C33.5792 35.0098 34.397 35.3922 35.2742 35.5632C36.1515 35.7342 37.0594 35.6882 37.9131 35.4294C38.7668 35.1707 39.5383 34.7077 40.1553 34.0838C40.7867 34.5423 41.5168 34.8588 42.2921 35.0099C43.0673 35.1609 43.8679 35.1427 44.6349 34.9566C45.4018 34.7705 46.1157 34.4212 46.7238 33.9345C47.3319 33.4477 47.8188 32.8359 48.1487 32.1441C49.153 31.7783 50.0178 31.1271 50.6283 30.2769C51.2387 29.4268 51.5659 28.418 51.5662 27.3846V27.3846Z" fill="white"/>
<path d="M64.2658 7.59286C63.6824 7.59286 63.1122 7.4264 62.6272 7.11452C62.1422 6.80265 61.7641 6.35937 61.5409 5.84075C61.3177 5.32212 61.2593 4.75144 61.3731 4.20087C61.4869 3.6503 61.7678 3.14457 62.1803 2.74763C62.5927 2.35069 63.1183 2.08037 63.6904 1.97086C64.2625 1.86134 64.8555 1.91755 65.3944 2.13237C65.9334 2.34719 66.394 2.71098 66.7181 3.17773C67.0422 3.64448 67.2151 4.19323 67.2151 4.75459C67.2141 5.50705 66.9031 6.2284 66.3502 6.76047C65.7973 7.29254 65.0477 7.59188 64.2658 7.59286V7.59286ZM64.2658 3.38824C63.9853 3.38824 63.711 3.46828 63.4778 3.61822C63.2445 3.76817 63.0627 3.9813 62.9553 4.23067C62.8479 4.48004 62.8198 4.75446 62.8744 5.01923C62.929 5.28401 63.064 5.52725 63.2623 5.71821C63.4605 5.90918 63.7132 6.03929 63.9882 6.0921C64.2633 6.14491 64.5485 6.11805 64.8077 6.01492C65.067 5.91178 65.2886 5.737 65.4446 5.51267C65.6007 5.28834 65.6841 5.02453 65.6843 4.75459C65.684 4.39252 65.5345 4.04536 65.2685 3.78923C65.0026 3.5331 64.642 3.38889 64.2658 3.38824V3.38824Z" fill="#E7F6FF"/>
<path d="M70.537 8.20421C71.2176 8.20421 71.7693 7.67327 71.7693 7.01833C71.7693 6.36338 71.2176 5.83244 70.537 5.83244C69.8564 5.83244 69.3047 6.36338 69.3047 7.01833C69.3047 7.67327 69.8564 8.20421 70.537 8.20421Z" fill="#E7F6FF"/>
<path opacity="0.5" d="M88.4104 68.9213V71.5263C87.6271 73.9239 86.3961 76.7265 84.7798 79.8201C84.1152 81.0478 83.4021 82.3429 82.6405 83.6737C83.161 82.8291 83.6611 81.9844 84.1458 81.1533C83.582 82.1833 82.9849 83.2514 82.3599 84.339V80.2879C82.4228 80.1749 82.4853 80.062 82.5474 79.949C82.4849 80.0559 82.4198 80.1627 82.3599 80.2695V80.1197C82.6414 79.609 82.9148 79.1077 83.1801 78.6158C84.9354 75.2571 86.2417 72.2396 87.0071 69.7131C87.4766 69.4615 87.946 69.1951 88.4104 68.9213V68.9213Z" fill="#BBD2E5"/>
<path opacity="0.1" d="M80.2652 1.88563C59.5686 1.84144 46.6767 14.3755 46.632 34.112C46.618 40.2108 49.9488 49.7274 55.7072 61.2229C58.307 66.0732 61.4592 71.4612 64.8091 76.8493C68.8913 83.4944 73.3561 90.1432 77.821 96.2519L80.0509 99.1294C80.7984 98.232 81.5459 97.3359 82.2948 96.2617C86.7851 89.9922 91.273 83.5423 95.3883 76.9131C98.7586 71.5361 101.753 66.1616 104.373 61.3223C110.369 49.8514 113.743 40.3496 113.757 34.2507C113.795 15.0531 100.402 1.92737 80.2652 1.88563V1.88563ZM80.1491 53.916C67.8375 53.8927 57.7967 44.1834 57.8235 32.3393C57.8503 20.4952 67.9396 10.8301 80.2448 10.8559C92.5499 10.8817 102.596 20.5909 102.569 32.4326C102.542 44.2743 92.4581 53.9418 80.1478 53.916H80.1491Z" fill="#070707"/>
<path d="M99.9603 30.9754C99.9335 42.8208 89.8429 52.4859 77.5377 52.4589C66.8808 52.4368 57.9166 45.152 55.7237 35.5041C55.4978 34.2647 55.386 33.0084 55.3895 31.7501C55.4163 19.9096 65.5069 10.2408 77.8107 10.2666C88.4524 10.2887 97.4051 17.555 99.6146 27.1759C99.6137 27.1812 99.6137 27.1866 99.6146 27.1919C99.8462 28.4407 99.9619 29.7069 99.9603 30.9754V30.9754Z" fill="white"/>
<path d="M77.8772 0.699748C57.1819 0.656782 44.2887 13.1896 44.2453 32.9261C44.2313 39.0249 47.562 48.5415 53.3204 60.037C55.919 64.8885 59.0763 70.2766 62.4211 75.6671C66.5033 82.3122 70.9681 88.961 75.433 95.0697L77.6603 97.946C78.4079 97.0486 79.1554 96.1524 79.9042 95.0783C84.3946 88.8088 88.8824 82.3589 92.9977 75.7297C96.3681 70.3527 99.3621 64.9782 101.982 60.1389C107.978 48.6679 111.352 39.1661 111.366 33.0673C111.408 13.8722 98.0137 0.736577 77.8772 0.699748V0.699748ZM77.7611 52.7301C65.4559 52.7044 55.41 42.9975 55.4368 31.1534C55.4636 19.3093 65.5529 9.64422 77.858 9.67C90.1632 9.69578 100.209 19.4051 100.182 31.2467C100.156 43.0884 90.0662 52.7559 77.7611 52.7301Z" fill="#6100FF"/>
<path d="M100.691 63.0005C98.3951 67.2002 95.8233 71.7166 92.99 76.2367C88.876 82.8659 84.3869 89.3146 79.8978 95.5841C79.1503 96.6595 78.4027 97.5483 77.6526 98.453L75.4227 95.5755C70.9579 89.4668 66.5019 82.818 62.4108 76.179C59.0635 70.7873 55.9049 65.3992 53.3089 60.5489C47.5543 49.0485 44.2248 39.5295 44.2376 33.4319C44.2554 25.2878 46.4624 18.3726 50.5024 13.0533C48.904 17.064 48.0557 21.6307 48.0442 26.6652C48.0302 32.7641 51.361 42.2818 57.1193 53.7761C59.7192 58.6264 62.8752 64.0145 66.2213 69.4062C70.3034 76.0501 74.7683 82.6989 79.2332 88.8027L81.463 91.6802C82.2119 90.7816 82.9594 89.8867 83.7082 88.8113C88.1973 82.543 92.6864 76.0918 96.8005 69.4639C98.1565 67.3021 99.4526 65.1328 100.691 63.0005V63.0005Z" fill="#5202D5"/>
<path d="M77.6284 99.51L74.6943 95.7228C70.2295 89.6117 65.7187 82.8831 61.6493 76.2637C58.1603 70.6436 55.0043 65.2225 52.5231 60.5906L52.5129 60.5698C46.4165 48.3966 43.3332 39.1489 43.3446 33.0845C43.3663 23.1469 46.5938 14.8015 52.6788 8.94815C58.7637 3.09484 67.4383 0 77.7662 0H77.8733C82.9327 0.00982099 87.6616 0.829874 91.93 2.43438C96.0174 3.93642 99.7256 6.25873 102.808 9.24686C105.89 12.235 108.276 15.8204 109.807 19.7648C111.439 23.8638 112.26 28.3913 112.249 33.2244C112.235 39.3441 108.958 48.8386 102.771 60.6802V60.6913C100.439 64.999 97.307 70.6694 93.758 76.33C89.3582 83.4158 84.6535 90.1076 80.6326 95.7252C79.88 96.8068 79.1184 97.7214 78.381 98.6065L77.6284 99.51ZM76.1461 94.7223L77.6769 96.6963C78.1757 96.0825 78.663 95.4687 79.1554 94.7579C83.1674 89.1562 87.8517 82.4902 92.2247 75.4473C95.7481 69.826 98.8582 64.1888 101.181 59.9044C107.242 48.3033 110.453 39.0765 110.466 33.222C110.486 24.0148 107.404 16.1433 101.549 10.463C95.6728 4.76196 87.483 1.73832 77.8695 1.71867H77.7662C67.9218 1.71867 59.686 4.63797 53.9429 10.1635C48.1999 15.689 45.1535 23.6146 45.1306 33.0869C45.1178 38.8077 48.2241 48.0492 54.1126 59.8123C56.5772 64.411 59.7128 69.7954 63.1814 75.3847C67.2291 81.966 71.7105 88.6529 76.1473 94.7247L76.1461 94.7223ZM77.8044 53.7466H77.7534C73.1519 53.7421 68.6553 52.4231 64.8336 49.9567C61.0118 47.4903 58.037 43.9875 56.2861 39.8924C54.5352 35.7972 54.0871 31.2941 54.9985 26.9536C55.9099 22.6131 58.1398 18.6306 61.4056 15.511C63.5555 13.4342 66.1109 11.787 68.9249 10.6642C71.7388 9.54148 74.7557 8.96536 77.8019 8.96902H77.8529C82.4547 8.97363 86.9515 10.2928 90.7734 12.7595C94.5953 15.2261 97.5702 18.7291 99.3211 22.8245C101.072 26.9199 101.52 31.4233 100.608 35.7641C99.6969 40.1048 97.4668 44.0874 94.2007 47.2071C92.0509 49.284 89.4955 50.9312 86.6815 52.054C83.8676 53.1767 80.8507 53.7528 77.8044 53.7491V53.7466ZM77.7572 52.0279H77.8044C83.5014 52.0338 88.9675 49.8616 93.0001 45.9891C97.0328 42.1166 99.3018 36.8611 99.3079 31.3787C99.314 25.8963 97.0567 20.6361 93.0326 16.7554C89.0086 12.8746 83.5473 10.6911 77.8504 10.6852H77.8032C72.1062 10.6794 66.6401 12.8516 62.6075 16.7241C58.5748 20.5966 56.3058 25.8521 56.2998 31.3345C56.2937 36.8169 58.5509 42.077 62.575 45.9578C66.5991 49.8386 72.0603 52.0221 77.7572 52.0279V52.0279Z" fill="#426572"/>
<path d="M97.5709 11.5397C102.024 15.5184 105.108 20.6609 106.339 26.4001C106.779 28.5108 106.995 30.6591 106.984 32.8119C106.984 33.7597 108.515 33.7609 108.515 32.8119C108.507 25.9029 106.336 19.2185 101.842 13.7936C100.866 12.62 99.7996 11.5182 98.6527 10.4974C97.9319 9.85292 96.8463 10.8927 97.5697 11.5397H97.5709Z" fill="white"/>
<path d="M89.556 6.38365L89.6453 6.41925C89.4004 6.32472 89.7729 6.47449 89.829 6.49904C90.2028 6.66232 90.5702 6.83787 90.9337 7.01955C92.1885 7.65648 93.3972 8.37422 94.5515 9.1679C95.3565 9.71665 96.1232 8.43992 95.3246 7.89608C93.6573 6.7593 91.8714 5.68635 89.9668 4.96328C89.0508 4.61464 88.6528 6.03868 89.5598 6.38365H89.556Z" fill="white"/>
<path d="M138.067 78.664C138.067 80.968 137.662 83.08 136.851 85C136.083 86.8773 134.953 88.4987 133.459 89.864C131.966 91.1867 130.153 92.2107 128.019 92.936C125.886 93.6613 123.475 94.024 120.787 94.024C118.099 94.024 115.689 93.6613 113.555 92.936C111.422 92.2107 109.609 91.1867 108.115 89.864C106.622 88.4987 105.47 86.8773 104.659 85C103.891 83.08 103.507 80.968 103.507 78.664V54.216C103.977 54.1307 104.723 54.024 105.747 53.896C106.771 53.7253 107.753 53.64 108.691 53.64C109.673 53.64 110.526 53.7253 111.251 53.896C112.019 54.024 112.659 54.28 113.171 54.664C113.683 55.048 114.067 55.5813 114.323 56.264C114.579 56.9467 114.707 57.8427 114.707 58.952V78.472C114.707 80.52 115.262 82.12 116.371 83.272C117.523 84.424 118.995 85 120.787 85C122.622 85 124.094 84.424 125.203 83.272C126.313 82.12 126.867 80.52 126.867 78.472V54.216C127.337 54.1307 128.083 54.024 129.107 53.896C130.131 53.7253 131.113 53.64 132.051 53.64C133.033 53.64 133.886 53.7253 134.611 53.896C135.379 54.024 136.019 54.28 136.531 54.664C137.043 55.048 137.427 55.5813 137.683 56.264C137.939 56.9467 138.067 57.8427 138.067 58.952V78.664Z" fill="#F2BD2B"/>
<path d="M29.7193 72.2C31.5113 72.2 32.8766 71.7947 33.8153 70.984C34.7966 70.1307 35.2873 68.8507 35.2873 67.144C35.2873 65.5227 34.7753 64.2853 33.7513 63.432C32.7699 62.536 31.3193 62.088 29.3993 62.088C28.7166 62.088 28.1406 62.1093 27.6713 62.152C27.2446 62.152 26.7966 62.1947 26.3273 62.28V72.2H29.7193ZM26.3913 92.744C25.9219 92.872 25.1753 93 24.1513 93.128C23.1699 93.256 22.1886 93.32 21.2073 93.32C20.2259 93.32 19.3513 93.2347 18.5833 93.064C17.8579 92.936 17.2393 92.68 16.7273 92.296C16.2153 91.912 15.8313 91.3787 15.5753 90.696C15.3193 90.0133 15.1913 89.1173 15.1913 88.008V57.864C15.1913 56.968 15.4259 56.2853 15.8953 55.816C16.4073 55.304 17.0899 54.8987 17.9433 54.6C19.3939 54.088 21.0366 53.7253 22.8713 53.512C24.7486 53.256 26.6259 53.128 28.5033 53.128C34.3913 53.128 38.8926 54.3867 42.0073 56.904C45.1219 59.4213 46.6793 62.8347 46.6793 67.144C46.6793 69.2347 46.3379 71.1333 45.6553 72.84C45.0153 74.504 44.0339 75.9547 42.7113 77.192C41.4313 78.3867 39.7886 79.3253 37.7833 80.008C35.8206 80.648 33.5379 80.968 30.9353 80.968H26.3913V92.744ZM50.6658 53.256C50.6658 51.6347 51.1991 50.2693 52.2658 49.16C53.3751 48.0507 54.8258 47.496 56.6178 47.496C58.4098 47.496 59.8391 48.0507 60.9058 49.16C62.0151 50.2693 62.5698 51.6347 62.5698 53.256C62.5698 54.8773 62.0151 56.2427 60.9058 57.352C59.8391 58.4613 58.4098 59.016 56.6178 59.016C54.8258 59.016 53.3751 58.4613 52.2658 57.352C51.1991 56.2427 50.6658 54.8773 50.6658 53.256ZM62.0578 92.936C61.5884 93.0213 60.8844 93.128 59.9458 93.256C59.0498 93.4267 58.1324 93.512 57.1938 93.512C56.2551 93.512 55.4018 93.448 54.6338 93.32C53.9084 93.192 53.2898 92.936 52.7778 92.552C52.2658 92.168 51.8604 91.656 51.5618 91.016C51.3058 90.3333 51.1778 89.4587 51.1778 88.392V62.344C51.6471 62.2587 52.3298 62.152 53.2258 62.024C54.1644 61.8533 55.1031 61.768 56.0417 61.768C56.9804 61.768 57.8124 61.832 58.5378 61.96C59.3058 62.088 59.9458 62.344 60.4578 62.728C60.9698 63.112 61.3538 63.6453 61.6098 64.328C61.9084 64.968 62.0578 65.8213 62.0578 66.888V92.936ZM88.6963 73.288C88.6963 71.9653 88.3123 71.0053 87.5443 70.408C86.8189 69.768 85.8163 69.448 84.5363 69.448C83.6829 69.448 82.8296 69.5547 81.9763 69.768C81.1656 69.9813 80.4616 70.3013 79.8643 70.728V92.936C79.4376 93.064 78.7549 93.192 77.8163 93.32C76.9203 93.448 75.9816 93.512 75.0003 93.512C74.0616 93.512 73.2083 93.448 72.4403 93.32C71.7149 93.192 71.0963 92.936 70.5843 92.552C70.0723 92.168 69.6669 91.656 69.3683 91.016C69.1123 90.3333 68.9843 89.4587 68.9843 88.392V69.192C68.9843 68.04 69.2189 67.1013 69.6883 66.376C70.2003 65.6507 70.8829 64.9893 71.7363 64.392C73.1869 63.368 75.0003 62.536 77.1763 61.896C79.3949 61.256 81.8483 60.936 84.5363 60.936C89.3576 60.936 93.0696 62.0027 95.6723 64.136C98.2749 66.2267 99.5763 69.1493 99.5763 72.904V92.936C99.1496 93.064 98.4669 93.192 97.5283 93.32C96.6323 93.448 95.6936 93.512 94.7123 93.512C93.7736 93.512 92.9203 93.448 92.1523 93.32C91.4269 93.192 90.8083 92.936 90.2963 92.552C89.7843 92.168 89.3789 91.656 89.0803 91.016C88.8243 90.3333 88.6963 89.4587 88.6963 88.392V73.288Z" fill="white"/>
</g>
<defs>
<filter id="filter0_d_77631_266" x="11.1913" y="0" width="130.876" height="107.51" filterUnits="userSpaceOnUse" color-interpolation-filters="sRGB">
<feFlood flood-opacity="0" result="BackgroundImageFix"/>
<feColorMatrix in="SourceAlpha" type="matrix" values="0 0 0 0 0 0 0 0 0 0 0 0 0 0 0 0 0 0 127 0" result="hardAlpha"/>
<feOffset dy="4"/>
<feGaussianBlur stdDeviation="2"/>
<feComposite in2="hardAlpha" operator="out"/>
<feColorMatrix type="matrix" values="0 0 0 0 0 0 0 0 0 0 0 0 0 0 0 0 0 0 0.25 0"/>
<feBlend mode="normal" in2="BackgroundImageFix" result="effect1_dropShadow_77631_266"/>
<feBlend mode="normal" in="SourceGraphic" in2="effect1_dropShadow_77631_266" result="shape"/>
</filter>
</defs>
</svg>
