<svg width="79" height="108" viewBox="0 0 79 108" fill="none" xmlns="http://www.w3.org/2000/svg">
<g filter="url(#filter0_d_77636_132)">
<path opacity="0.5" d="M49.4104 68.9213V71.5263C48.6271 73.9239 47.3961 76.7265 45.7798 79.8201C45.1152 81.0478 44.4021 82.3429 43.6405 83.6737C44.161 82.8291 44.6611 81.9844 45.1458 81.1533C44.582 82.1833 43.9849 83.2514 43.3599 84.339V80.2879C43.4228 80.1749 43.4853 80.062 43.5474 79.949C43.4849 80.0559 43.4198 80.1627 43.3599 80.2695V80.1197C43.6414 79.609 43.9148 79.1077 44.1801 78.6158C45.9354 75.2571 47.2417 72.2396 48.0071 69.7131C48.4766 69.4615 48.946 69.1951 49.4104 68.9213V68.9213Z" fill="#BBD2E5"/>
<path opacity="0.1" d="M41.2652 1.88563C20.5686 1.84144 7.67665 14.3755 7.632 34.112C7.61797 40.2108 10.9488 49.7274 16.7072 61.2229C19.307 66.0732 22.4592 71.4612 25.8091 76.8493C29.8913 83.4944 34.3561 90.1432 38.821 96.2519L41.0509 99.1294C41.7984 98.232 42.5459 97.3359 43.2948 96.2617C47.7851 89.9922 52.273 83.5423 56.3883 76.9131C59.7586 71.5361 62.7526 66.1616 65.3729 61.3223C71.3685 49.8514 74.7427 40.3496 74.7567 34.2507C74.795 15.0531 61.4017 1.92737 41.2652 1.88563V1.88563ZM41.1491 53.916C28.8375 53.8927 18.7967 44.1834 18.8235 32.3393C18.8503 20.4952 28.9396 10.8301 41.2448 10.8559C53.5499 10.8817 63.5959 20.5909 63.5691 32.4326C63.5423 44.2743 53.4581 53.9418 41.1478 53.916H41.1491Z" fill="#070707"/>
<path d="M60.9603 30.9754C60.9335 42.8208 50.8429 52.4859 38.5377 52.4589C27.8808 52.4368 18.9166 45.152 16.7237 35.5041C16.4978 34.2647 16.386 33.0084 16.3895 31.7501C16.4163 19.9096 26.5069 10.2408 38.8107 10.2666C49.4524 10.2887 58.4051 17.555 60.6146 27.1759C60.6137 27.1812 60.6137 27.1866 60.6146 27.1919C60.8462 28.4407 60.9619 29.7069 60.9603 30.9754V30.9754Z" fill="white"/>
<path d="M38.8772 0.699748C18.1819 0.656782 5.28866 13.1896 5.24528 32.9261C5.23125 39.0249 8.56204 48.5415 14.3204 60.037C16.919 64.8885 20.0763 70.2766 23.4211 75.6671C27.5033 82.3122 31.9681 88.961 36.433 95.0697L38.6603 97.946C39.4079 97.0486 40.1554 96.1524 40.9042 95.0783C45.3946 88.8088 49.8824 82.3589 53.9977 75.7297C57.3681 70.3527 60.3621 64.9782 62.9823 60.1389C68.978 48.6679 72.3522 39.1661 72.3662 33.0673C72.4083 13.8722 59.0137 0.736577 38.8772 0.699748V0.699748ZM38.7611 52.7301C26.4559 52.7044 16.41 42.9975 16.4368 31.1534C16.4636 19.3093 26.5529 9.64422 38.858 9.67C51.1632 9.69578 61.2091 19.4051 61.1823 31.2467C61.1556 43.0884 51.0662 52.7559 38.7611 52.7301Z" fill="#6100FF"/>
<path d="M61.6913 63.0005C59.3951 67.2002 56.8233 71.7166 53.99 76.2367C49.876 82.8659 45.3869 89.3146 40.8978 95.5841C40.1503 96.6595 39.4027 97.5483 38.6526 98.453L36.4227 95.5755C31.9579 89.4668 27.5019 82.818 23.4108 76.179C20.0635 70.7873 16.9049 65.3992 14.3089 60.5489C8.55434 49.0485 5.22483 39.5295 5.23759 33.4319C5.25544 25.2878 7.46236 18.3726 11.5024 13.0533C9.904 17.064 9.05568 21.6307 9.0442 26.6652C9.03017 32.7641 12.361 42.2818 18.1193 53.7761C20.7192 58.6264 23.8752 64.0145 27.2213 69.4062C31.3034 76.0501 35.7683 82.6989 40.2332 88.8027L42.463 91.6802C43.2119 90.7816 43.9594 89.8867 44.7082 88.8113C49.1973 82.543 53.6864 76.0918 57.8005 69.4639C59.1565 67.3021 60.4526 65.1328 61.6913 63.0005V63.0005Z" fill="#5202D5"/>
<path d="M38.6284 99.51L35.6943 95.7228C31.2295 89.6117 26.7187 82.8831 22.6493 76.2637C19.1603 70.6436 16.0043 65.2225 13.5231 60.5906L13.5129 60.5698C7.41646 48.3966 4.33316 39.1489 4.34464 33.0845C4.36632 23.1469 7.59378 14.8015 13.6788 8.94815C19.7637 3.09484 28.4383 0 38.7662 0H38.8733C43.9327 0.00982099 48.6616 0.829874 52.93 2.43438C57.0174 3.93642 60.7256 6.25873 63.808 9.24686C66.8905 12.235 69.2764 15.8204 70.8073 19.7648C72.4389 23.8638 73.2604 28.3913 73.2489 33.2244C73.2349 39.3441 69.9577 48.8386 63.7707 60.6802V60.6913C61.4387 64.999 58.307 70.6694 54.758 76.33C50.3582 83.4158 45.6535 90.1076 41.6326 95.7252C40.88 96.8068 40.1184 97.7214 39.381 98.6065L38.6284 99.51ZM37.1461 94.7223L38.6769 96.6963C39.1757 96.0825 39.663 95.4687 40.1554 94.7579C44.1674 89.1562 48.8517 82.4902 53.2247 75.4473C56.7481 69.826 59.8582 64.1888 62.1812 59.9044C68.2419 48.3033 71.4528 39.0765 71.4655 33.222C71.486 24.0148 68.4039 16.1433 62.5486 10.463C56.6728 4.76196 48.483 1.73832 38.8695 1.71867H38.7662C28.9218 1.71867 20.686 4.63797 14.9429 10.1635C9.19986 15.689 6.15354 23.6146 6.13058 33.0869C6.11782 38.8077 9.22409 48.0492 15.1126 59.8123C17.5772 64.411 20.7128 69.7954 24.1814 75.3847C28.2291 81.966 32.7105 88.6529 37.1473 94.7247L37.1461 94.7223ZM38.8044 53.7466H38.7534C34.1519 53.7421 29.6553 52.4231 25.8336 49.9567C22.0118 47.4903 19.037 43.9875 17.2861 39.8924C15.5352 35.7972 15.0871 31.2941 15.9985 26.9536C16.9099 22.6131 19.1398 18.6306 22.4056 15.511C24.5555 13.4342 27.1109 11.787 29.9249 10.6642C32.7388 9.54148 35.7557 8.96536 38.8019 8.96902H38.8529C43.4547 8.97363 47.9515 10.2928 51.7734 12.7595C55.5953 15.2261 58.5702 18.7291 60.3211 22.8245C62.072 26.9199 62.52 31.4233 61.6085 35.7641C60.6969 40.1048 58.4668 44.0874 55.2007 47.2071C53.0509 49.284 50.4955 50.9312 47.6815 52.054C44.8676 53.1767 41.8507 53.7528 38.8044 53.7491V53.7466ZM38.7572 52.0279H38.8044C44.5014 52.0338 49.9675 49.8616 54.0001 45.9891C58.0328 42.1166 60.3018 36.8611 60.3079 31.3787C60.314 25.8963 58.0567 20.6361 54.0326 16.7554C50.0086 12.8746 44.5473 10.6911 38.8504 10.6852H38.8032C33.1062 10.6794 27.6401 12.8516 23.6075 16.7241C19.5748 20.5966 17.3058 25.8521 17.2998 31.3345C17.2937 36.8169 19.5509 42.077 23.575 45.9578C27.5991 49.8386 33.0603 52.0221 38.7572 52.0279V52.0279Z" fill="#426572"/>
<path d="M58.5709 11.5397C63.0243 15.5184 66.1076 20.6609 67.3386 26.4001C67.7787 28.5108 67.995 30.6591 67.9841 32.8119C67.9841 33.7597 69.5149 33.7609 69.5149 32.8119C69.5073 25.9029 67.3361 19.2185 62.8419 13.7936C61.8656 12.62 60.7996 11.5182 59.6527 10.4974C58.9319 9.85292 57.8463 10.8927 58.5697 11.5397H58.5709Z" fill="white"/>
<path d="M50.556 6.38365L50.6453 6.41925C50.4004 6.32472 50.7729 6.47449 50.829 6.49904C51.2028 6.66232 51.5702 6.83787 51.9337 7.01955C53.1885 7.65648 54.3972 8.37422 55.5515 9.1679C56.3565 9.71665 57.1232 8.43992 56.3246 7.89608C54.6573 6.7593 52.8714 5.68635 50.9668 4.96328C50.0508 4.61464 49.6528 6.03868 50.5598 6.38365H50.556Z" fill="white"/>
</g>
<defs>
<filter id="filter0_d_77636_132" x="0.344604" y="0" width="78.4122" height="107.51" filterUnits="userSpaceOnUse" color-interpolation-filters="sRGB">
<feFlood flood-opacity="0" result="BackgroundImageFix"/>
<feColorMatrix in="SourceAlpha" type="matrix" values="0 0 0 0 0 0 0 0 0 0 0 0 0 0 0 0 0 0 127 0" result="hardAlpha"/>
<feOffset dy="4"/>
<feGaussianBlur stdDeviation="2"/>
<feComposite in2="hardAlpha" operator="out"/>
<feColorMatrix type="matrix" values="0 0 0 0 0 0 0 0 0 0 0 0 0 0 0 0 0 0 0.25 0"/>
<feBlend mode="normal" in2="BackgroundImageFix" result="effect1_dropShadow_77636_132"/>
<feBlend mode="normal" in="SourceGraphic" in2="effect1_dropShadow_77636_132" result="shape"/>
</filter>
</defs>
</svg>
